# Blender 3.4.1
# www.blender.org
mtllib Human.mtl
o Untitled
v -1.300000 0.400000 0.300000
v -1.300000 0.400000 -0.300000
v -1.300000 2.300000 0.300001
v -1.300000 2.300000 -0.299999
v -0.700000 -1.000000 0.300000
v -0.700000 -1.000000 -0.300000
v -0.700000 0.500000 0.300000
v -0.700000 0.500000 -0.300000
v -0.700000 0.600000 0.300000
v -0.700000 0.600000 -0.300000
v -0.700000 2.300000 0.300001
v -0.700000 2.300000 -0.299999
v -0.700000 2.400000 0.600001
v -0.700000 2.400000 0.500001
v -0.700000 2.400000 -0.599999
v -0.700000 3.600000 0.600001
v -0.700000 3.600000 0.500001
v -0.700000 3.600000 -0.599999
v -0.700000 3.700000 0.600001
v -0.700000 3.700000 -0.599999
v 0.200000 -1.000000 0.300000
v 0.200000 -1.000000 -0.300000
v 0.200000 0.500000 0.300000
v 0.200000 0.500000 -0.300000
v 0.800000 0.400000 0.300000
v 0.800000 0.400000 -0.300000
v 0.800000 2.300000 0.300001
v 0.800000 2.300000 -0.299999
v -0.800000 0.400000 0.300000
v -0.800000 0.400000 -0.300000
v -0.800000 2.300000 0.300001
v -0.800000 2.300000 -0.299999
v -0.200000 -1.000000 0.300000
v -0.200000 -1.000000 -0.300000
v -0.200000 0.500000 0.300000
v -0.200000 0.500000 -0.300000
v 0.700000 -1.000000 0.300000
v 0.700000 -1.000000 -0.300000
v 0.700000 0.500000 0.300000
v 0.700000 0.500000 -0.300000
v 0.700000 0.600000 0.300000
v 0.700000 0.600000 -0.300000
v 0.700000 2.300000 0.300001
v 0.700000 2.300000 -0.299999
v 0.700000 2.400000 0.600001
v 0.700000 2.400000 0.500001
v 0.700000 2.400000 -0.599999
v 0.700000 3.600000 0.600001
v 0.700000 3.600000 0.500001
v 0.700000 3.600000 -0.599999
v 0.700000 3.700000 0.600001
v 0.700000 3.700000 -0.599999
v 1.300000 0.400000 0.300000
v 1.300000 0.400000 -0.300000
v 1.300000 2.300000 0.300001
v 1.300000 2.300000 -0.299999
v -0.700000 2.400000 0.600001
v -0.700000 3.600000 0.600001
v -0.700000 3.700000 0.600001
v 0.700000 2.400000 0.600001
v 0.700000 3.600000 0.600001
v 0.700000 3.700000 0.600001
v -1.300000 0.400000 0.300000
v -1.300000 2.300000 0.300001
v -0.800000 0.400000 0.300000
v -0.800000 2.300000 0.300001
v -0.700000 -1.000000 0.300000
v -0.700000 0.500000 0.300000
v -0.700000 0.600000 0.300000
v -0.700000 2.300000 0.300001
v -0.200000 -1.000000 0.300000
v -0.200000 0.500000 0.300000
v 0.200000 -1.000000 0.300000
v 0.200000 0.500000 0.300000
v 0.700000 -1.000000 0.300000
v 0.700000 0.500000 0.300000
v 0.700000 0.600000 0.300000
v 0.700000 2.300000 0.300001
v 0.800000 0.400000 0.300000
v 0.800000 2.300000 0.300001
v 1.300000 0.400000 0.300000
v 1.300000 2.300000 0.300001
v -1.300000 0.400000 -0.300000
v -1.300000 2.300000 -0.299999
v -0.800000 0.400000 -0.300000
v -0.800000 2.300000 -0.299999
v -0.700000 -1.000000 -0.300000
v -0.700000 0.500000 -0.300000
v -0.700000 0.600000 -0.300000
v -0.700000 2.300000 -0.299999
v -0.200000 -1.000000 -0.300000
v -0.200000 0.500000 -0.300000
v 0.200000 -1.000000 -0.300000
v 0.200000 0.500000 -0.300000
v 0.700000 -1.000000 -0.300000
v 0.700000 0.500000 -0.300000
v 0.700000 0.600000 -0.300000
v 0.700000 2.300000 -0.299999
v 0.800000 0.400000 -0.300000
v 0.800000 2.300000 -0.299999
v 1.300000 0.400000 -0.300000
v 1.300000 2.300000 -0.299999
v -0.700000 2.400000 -0.599999
v -0.700000 3.600000 -0.599999
v -0.700000 3.700000 -0.599999
v 0.700000 2.400000 -0.599999
v 0.700000 3.600000 -0.599999
v 0.700000 3.700000 -0.599999
v -0.700000 -1.000000 0.300000
v -0.200000 -1.000000 0.300000
v 0.200000 -1.000000 0.300000
v 0.700000 -1.000000 0.300000
v -0.700000 -1.000000 -0.300000
v -0.200000 -1.000000 -0.300000
v 0.200000 -1.000000 -0.300000
v 0.700000 -1.000000 -0.300000
v -1.300000 0.400000 0.300000
v -0.800000 0.400000 0.300000
v 0.800000 0.400000 0.300000
v 1.300000 0.400000 0.300000
v -1.300000 0.400000 -0.300000
v -0.800000 0.400000 -0.300000
v 0.800000 0.400000 -0.300000
v 1.300000 0.400000 -0.300000
v -0.700000 0.600000 0.300000
v 0.700000 0.600000 0.300000
v -0.700000 0.600000 -0.300000
v 0.700000 0.600000 -0.300000
v -0.700000 2.400000 0.600001
v 0.700000 2.400000 0.600001
v -0.700000 2.400000 0.500001
v 0.700000 2.400000 0.500001
v -0.700000 2.400000 -0.599999
v 0.700000 2.400000 -0.599999
v -0.700000 0.500000 0.300000
v -0.200000 0.500000 0.300000
v 0.200000 0.500000 0.300000
v 0.700000 0.500000 0.300000
v -0.700000 0.500000 -0.300000
v -0.200000 0.500000 -0.300000
v 0.200000 0.500000 -0.300000
v 0.700000 0.500000 -0.300000
v -1.300000 2.300000 0.300001
v -0.800000 2.300000 0.300001
v -0.700000 2.300000 0.300001
v 0.700000 2.300000 0.300001
v 0.800000 2.300000 0.300001
v 1.300000 2.300000 0.300001
v -1.300000 2.300000 -0.299999
v -0.800000 2.300000 -0.299999
v -0.700000 2.300000 -0.299999
v 0.700000 2.300000 -0.299999
v 0.800000 2.300000 -0.299999
v 1.300000 2.300000 -0.299999
v -0.700000 3.700000 0.600001
v 0.700000 3.700000 0.600001
v -0.700000 3.700000 -0.599999
v 0.700000 3.700000 -0.599999
vn -1.0000 -0.0000 -0.0000
vn 1.0000 -0.0000 -0.0000
vn -0.0000 -0.0000 1.0000
vn -0.0000 -0.0000 -1.0000
vn -0.0000 -1.0000 -0.0000
vn -0.0000 1.0000 -0.0000
vt 0.841797 0.500000
vt 0.841797 0.500000
vt 0.841797 0.500000
vt 0.841797 0.500000
vt 0.958984 0.500000
vt 0.958984 0.500000
vt 0.958984 0.500000
vt 0.958984 0.500000
vt 0.958984 0.500000
vt 0.958984 0.500000
vt 0.958984 0.500000
vt 0.958984 0.500000
vt 0.720703 0.500000
vt 0.958984 0.500000
vt 0.720703 0.500000
vt 0.958984 0.500000
vt 0.720703 0.500000
vt 0.919922 0.500000
vt 0.720703 0.500000
vt 0.958984 0.500000
vt 0.919922 0.500000
vt 0.958984 0.500000
vt 0.919922 0.500000
vt 0.919922 0.500000
vt 0.919922 0.500000
vt 0.958984 0.500000
vt 0.958984 0.500000
vt 0.958984 0.500000
vt 0.958984 0.500000
vt 0.958984 0.500000
vt 0.958984 0.500000
vt 0.958984 0.500000
vt 0.958984 0.500000
vt 0.841797 0.500000
vt 0.841797 0.500000
vt 0.841797 0.500000
vt 0.841797 0.500000
vt 0.958984 0.500000
vt 0.958984 0.500000
vt 0.958984 0.500000
vt 0.958984 0.500000
vt 0.958984 0.500000
vt 0.958984 0.500000
vt 0.958984 0.500000
vt 0.958984 0.500000
vt 0.958984 0.500000
vt 0.958984 0.500000
vt 0.958984 0.500000
vt 0.958984 0.500000
vt 0.720703 0.500000
vt 0.958984 0.500000
vt 0.720703 0.500000
vt 0.958984 0.500000
vt 0.720703 0.500000
vt 0.919922 0.500000
vt 0.720703 0.500000
vt 0.958984 0.500000
vt 0.919922 0.500000
vt 0.958984 0.500000
vt 0.919922 0.500000
vt 0.919922 0.500000
vt 0.919922 0.500000
vt 0.958984 0.500000
vt 0.958984 0.500000
vt 0.958984 0.500000
vt 0.958984 0.500000
vt 0.720703 0.500000
vt 0.919922 0.500000
vt 0.720703 0.500000
vt 0.919922 0.500000
vt 0.720703 0.500000
vt 0.720703 0.500000
vt 0.919922 0.500000
vt 0.919922 0.500000
vt 0.841797 0.500000
vt 0.841797 0.500000
vt 0.841797 0.500000
vt 0.841797 0.500000
vt 0.958984 0.500000
vt 0.958984 0.500000
vt 0.958984 0.500000
vt 0.958984 0.500000
vt 0.958984 0.500000
vt 0.958984 0.500000
vt 0.958984 0.500000
vt 0.958984 0.500000
vt 0.958984 0.500000
vt 0.958984 0.500000
vt 0.958984 0.500000
vt 0.958984 0.500000
vt 0.958984 0.500000
vt 0.958984 0.500000
vt 0.958984 0.500000
vt 0.958984 0.500000
vt 0.841797 0.500000
vt 0.841797 0.500000
vt 0.841797 0.500000
vt 0.841797 0.500000
vt 0.958984 0.500000
vt 0.958984 0.500000
vt 0.958984 0.500000
vt 0.958984 0.500000
vt 0.958984 0.500000
vt 0.958984 0.500000
vt 0.958984 0.500000
vt 0.958984 0.500000
vt 0.958984 0.500000
vt 0.958984 0.500000
vt 0.958984 0.500000
vt 0.958984 0.500000
vt 0.958984 0.500000
vt 0.958984 0.500000
vt 0.958984 0.500000
vt 0.958984 0.500000
vt 0.958984 0.500000
vt 0.919922 0.500000
vt 0.958984 0.500000
vt 0.919922 0.500000
vt 0.958984 0.500000
vt 0.958984 0.500000
vt 0.919922 0.500000
vt 0.919922 0.500000
vt 0.958984 0.500000
vt 0.958984 0.500000
vt 0.958984 0.500000
vt 0.958984 0.500000
vt 0.958984 0.500000
vt 0.958984 0.500000
vt 0.958984 0.500000
vt 0.958984 0.500000
vt 0.841797 0.500000
vt 0.841797 0.500000
vt 0.958984 0.500000
vt 0.958984 0.500000
vt 0.841797 0.500000
vt 0.841797 0.500000
vt 0.958984 0.500000
vt 0.958984 0.500000
vt 0.958984 0.500000
vt 0.958984 0.500000
vt 0.958984 0.500000
vt 0.958984 0.500000
vt 0.720703 0.500000
vt 0.720703 0.500000
vt 0.720703 0.500000
vt 0.958984 0.500000
vt 0.720703 0.500000
vt 0.958984 0.500000
vt 0.958984 0.500000
vt 0.958984 0.500000
vt 0.958984 0.500000
vt 0.958984 0.500000
vt 0.958984 0.500000
vt 0.958984 0.500000
vt 0.958984 0.500000
vt 0.958984 0.500000
vt 0.958984 0.500000
vt 0.958984 0.500000
vt 0.841797 0.500000
vt 0.841797 0.500000
vt 0.958984 0.500000
vt 0.958984 0.500000
vt 0.958984 0.500000
vt 0.958984 0.500000
vt 0.841797 0.500000
vt 0.841797 0.500000
vt 0.958984 0.500000
vt 0.958984 0.500000
vt 0.958984 0.500000
vt 0.958984 0.500000
vt 0.919922 0.500000
vt 0.919922 0.500000
vt 0.919922 0.500000
vt 0.919922 0.500000
s 0
usemtl palette
f 3/3/1 2/2/1 1/1/1
f 4/4/1 2/2/1 3/3/1
f 7/7/1 6/6/1 5/5/1
f 8/8/1 6/6/1 7/7/1
f 11/11/1 10/10/1 9/9/1
f 12/12/1 10/10/1 11/11/1
f 16/17/1 14/15/1 13/13/1
f 17/20/1 15/16/1 14/14/1
f 17/19/1 14/15/1 16/17/1
f 18/22/1 15/16/1 17/20/1
f 19/24/1 17/21/1 16/18/1
f 19/24/1 18/23/1 17/21/1
f 20/25/1 18/23/1 19/24/1
f 23/28/1 22/27/1 21/26/1
f 24/29/1 22/27/1 23/28/1
f 27/32/1 26/31/1 25/30/1
f 28/33/1 26/31/1 27/32/1
f 29/34/2 30/35/2 31/36/2
f 31/36/2 30/35/2 32/37/2
f 33/38/2 34/39/2 35/40/2
f 35/40/2 34/39/2 36/41/2
f 37/42/2 38/43/2 39/44/2
f 39/44/2 38/43/2 40/45/2
f 41/46/2 42/47/2 43/48/2
f 43/48/2 42/47/2 44/49/2
f 45/50/2 46/52/2 48/54/2
f 46/51/2 47/53/2 49/57/2
f 48/54/2 46/52/2 49/56/2
f 49/57/2 47/53/2 50/59/2
f 48/55/2 49/58/2 51/61/2
f 49/58/2 50/60/2 51/61/2
f 51/61/2 50/60/2 52/62/2
f 53/63/2 54/64/2 55/65/2
f 55/65/2 54/64/2 56/66/2
f 60/71/3 58/69/3 57/67/3
f 61/73/3 59/70/3 58/68/3
f 61/72/3 58/69/3 60/71/3
f 62/74/3 59/70/3 61/73/3
f 65/77/3 64/76/3 63/75/3
f 66/78/3 64/76/3 65/77/3
f 71/83/3 68/80/3 67/79/3
f 72/84/3 68/80/3 71/83/3
f 75/87/3 74/86/3 73/85/3
f 76/88/3 74/86/3 75/87/3
f 77/89/3 70/82/3 69/81/3
f 78/90/3 70/82/3 77/89/3
f 81/93/3 80/92/3 79/91/3
f 82/94/3 80/92/3 81/93/3
f 83/95/4 84/96/4 85/97/4
f 85/97/4 84/96/4 86/98/4
f 87/99/4 88/100/4 91/103/4
f 91/103/4 88/100/4 92/104/4
f 93/105/4 94/106/4 95/107/4
f 95/107/4 94/106/4 96/108/4
f 89/101/4 90/102/4 97/109/4
f 97/109/4 90/102/4 98/110/4
f 99/111/4 100/112/4 101/113/4
f 101/113/4 100/112/4 102/114/4
f 103/115/4 104/117/4 106/119/4
f 104/116/4 105/118/4 107/121/4
f 106/119/4 104/117/4 107/120/4
f 107/121/4 105/118/4 108/122/4
f 113/127/5 110/124/5 109/123/5
f 114/128/5 110/124/5 113/127/5
f 115/129/5 112/126/5 111/125/5
f 116/130/5 112/126/5 115/129/5
f 121/135/5 118/132/5 117/131/5
f 122/136/5 118/132/5 121/135/5
f 123/137/5 120/134/5 119/133/5
f 124/138/5 120/134/5 123/137/5
f 127/141/5 126/140/5 125/139/5
f 128/142/5 126/140/5 127/141/5
f 131/145/5 130/144/5 129/143/5
f 132/147/5 130/144/5 131/145/5
f 133/149/5 132/148/5 131/146/5
f 134/150/5 132/148/5 133/149/5
f 135/151/6 136/152/6 139/155/6
f 139/155/6 136/152/6 140/156/6
f 137/153/6 138/154/6 141/157/6
f 141/157/6 138/154/6 142/158/6
f 143/159/6 144/160/6 149/165/6
f 149/165/6 144/160/6 150/166/6
f 145/161/6 146/162/6 151/167/6
f 151/167/6 146/162/6 152/168/6
f 147/163/6 148/164/6 153/169/6
f 153/169/6 148/164/6 154/170/6
f 155/171/6 156/172/6 157/173/6
f 157/173/6 156/172/6 158/174/6
